<svg xmlns="http://www.w3.org/2000/svg" xmlns:xlink="http://www.w3.org/1999/xlink" width="100" height="100" viewBox="0 0 100 100"><rect width="100%" height="100%" fill="#0073E6" rx="5" ry="5"></rect><g transform="translate(50 50) scale(0.69 0.69) rotate(0) translate(-50 -50)" style="fill:#C3C3C3"><svg fill="#C3C3C3" xmlns="http://www.w3.org/2000/svg" xmlns:xlink="http://www.w3.org/1999/xlink" version="1.1" x="0px" y="0px" viewBox="0 0 248.387 237.184" style="enable-background:new 0 0 248.387 237.184;" xml:space="preserve"><g><path d="M165.89,14.574c-28.835,0-54.198,14.805-68.947,37.216c2.877,2.518,5.872,6.009,8.573,10.872   c11.969-20.954,34.514-35.09,60.374-35.09c29.937,0,55.451,18.932,65.232,45.474c-0.295,0.013-0.631,0.038-1.039,0.038   c-0.304,0-0.64-0.016-1.005-0.084c-0.86-0.219-1.12-0.734-1.414-1.158c-0.276-0.451-0.504-0.955-0.73-1.465   c-0.296-0.723-0.666-1.484-0.9-1.869c-0.09,0.102-0.197,0.236-0.305,0.393c-0.361,0.504-0.742,1.195-1.195,1.789   c-0.314,0.375-0.62,0.815-1.377,1.01c-0.012,0.012-0.038,0.035-0.074,0.08c-0.092,0.117-0.223,0.357-0.355,0.65   c-0.315,0.568-0.482,1.441-1.578,2.037c-0.27,0.117-0.54,0.156-0.783,0.156c-0.93-0.033-1.592-0.43-2.261-0.729   c-0.484-0.254-0.978-0.443-1.182-0.5c-0.975,0.701-2.015,1.197-2.572,1.768c-0.066,0.023-0.253,0.465-0.394,1.1   c-0.17,0.621-0.311,1.438-1.004,2.164c-0.697,0.648-1.434,0.654-2.014,0.693c-0.595,0.016-1.147-0.008-1.481,0.045   c-0.225,0.031-0.278,0.068-0.278,0.068c-0.395,0.188-0.551,1.555-1.854,2.656c-0.007,0.018-0.015,0.041-0.022,0.072   c-0.043,0.152-0.082,0.432-0.107,0.758c-0.059,0.664-0.057,1.486-0.229,2.273c-0.129,0.504-0.316,1.15-1.055,1.576   c-0.838,0.416-1.602,0.357-2.261,0.373c0,0-0.04,0-0.117,0c-0.607-0.006-1.122,0.033-1.386,0.15   c-0.199,0.07-0.414,0.105-0.617,0.104c-0.813-0.029-1.305-0.373-1.816-0.666c-0.493-0.305-0.963-0.627-1.309-0.795   c-0.052-0.027-0.1-0.049-0.141-0.066c-0.074,0.191-0.16,0.473-0.24,0.787c-0.209,0.799-0.393,1.793-0.723,2.637   c-0.243,0.521-0.48,1.221-1.529,1.514c-0.096,0.016-0.196,0.024-0.295,0.024c-1.311-0.121-1.82-0.92-2.529-1.588   c-0.643-0.703-1.29-1.467-1.643-1.734c-1.061,0.363-2.188,0.895-2.935,1.299c-1.124,0.594-2.655,1.596-3.013,2.07   c-0.031,0.012-0.14,0.273-0.133,0.73c-0.01,0.791,0.262,1.84,0.277,2.771c0,0.043-0.002,0.078-0.002,0.137   c-0.007,0.135-0.01,0.287-0.01,0.445c-0.004,0.855,0.107,1.797,0.363,2.441l0.011,0.002c0.176,0.043,0.531,0.064,0.931,0.064   c0.322,0,0.676-0.012,1.033-0.012c0.775,0.068,1.59-0.135,2.488,0.773c0.387,0.473,0.537,1.063,0.532,1.563   c-0.006,0.363-0.071,0.689-0.155,0.996c0.373,0.18,0.709,0.336,0.977,0.389c0,0,0.021,0.004,0.07,0.004   c0.17,0.012,0.638-0.125,1.159-0.332c0.538-0.189,1.114-0.455,1.882-0.469c0.223-0.002,0.473,0.029,0.695,0.113   c0.926,0.375,1.073,1.09,1.211,1.59c0.121,0.547,0.16,1.129,0.188,1.721c0.01,0.346,0.021,0.703,0.037,1.043   c0,0,0.013-0.004,0.02-0.008c0.542-0.244,1.176-0.594,2.049-0.609c0.063,0,0.117,0.002,0.164,0.006c0.011,0,0.019,0,0.019,0   c0.015,0,0.015,0,0.015,0c0.002-0.012,0.066,0,0.246-0.105c0.18-0.098,0.42-0.268,0.691-0.465c0.554-0.367,1.176-0.945,2.256-0.986   c0.039,0,0.068,0.002,0.079,0.002c0.116,0.004,0.22,0.006,0.313,0.006c0.769,0.004,1.661-0.139,2.693-0.141   c0.081,0,0.14,0.002,0.17,0.002c0.805,0.049,1.195,0.494,1.507,0.832c0.308,0.367,0.556,0.77,0.798,1.172   c0.375,0.664,0.818,1.35,1.02,1.576c0.195-0.057,0.535-0.207,0.931-0.438c0.517-0.271,1.129-0.668,2-0.738   c0.075-0.014,0.125-0.012,0.153-0.01c0.016,0,0.023,0,0.027,0c0.919,0.016,1.555,0.41,2.096,0.676   c0.07,0.037,0.133,0.068,0.199,0.102c0.049-0.391,0.113-0.863,0.361-1.383c0.189-0.41,0.586-0.852,1.117-1.07   c0.035-0.047,0.092-0.133,0.154-0.238c0.161-0.283,0.359-0.709,0.579-1.162c0.49-0.838,0.828-2.027,2.337-2.389v-0.002   c0.02-0.004,0.039-0.008,0.059-0.01l0.01-0.002c0.054-0.006,0.107-0.01,0.164-0.01c0.951,0.084,1.218,0.584,1.546,0.941   c0.306,0.395,0.577,0.85,0.851,1.311c0.474,0.844,1.072,1.744,1.308,1.938c0.082-0.008,0.193-0.047,0.293-0.074   c0.036-0.043,0.066-0.088,0.102-0.129c0.33-0.355,0.749-0.801,1.485-0.869c0.149-0.016,0.269-0.016,0.36-0.016   c1.107,0.014,2.029,0.264,2.732,0.252c0.056,0,0.111-0.002,0.17-0.004c0.133-0.012,0.238-0.012,0.318-0.012   c1.157,0.016,2.097,0.313,2.779,0.297c0.045,0,0.085-0.002,0.121-0.002c0.074-0.008,0.131-0.008,0.172-0.008   c0.424,0.014,0.77,0.119,1.08,0.252c0.337-0.832,0.675-1.879,1.098-2.711c0.324-0.504,0.516-1.203,1.625-1.393   c0.02,0,0.079-0.007,0.157-0.009c-0.028,1.048-0.08,2.089-0.154,3.125c-0.336,0.828-0.673,1.872-1.096,2.704   c-0.323,0.502-0.517,1.203-1.7,1.396c-0.123,0.002-0.255,0.004-0.396,0.004c-0.949-0.002-1.801-0.129-2.521-0.125   c-0.084,0-0.169,0.002-0.262,0.008l-0.087,0.004l-0.079-0.008c-0.954-0.043-1.572-0.502-2.101-0.801   c-0.452-0.293-0.84-0.465-0.962-0.486c-0.011,0-0.024,0.002-0.04,0.004c-0.629-0.043-1.685,0.699-3.208,0.789l-0.426,0.008   l-0.102-0.09c-0.535-0.156-0.86-0.508-1.143-0.807c-0.361-0.41-0.662-0.879-0.951-1.352c-0.369-0.633-0.775-1.307-1.045-1.703   c-0.07,0.1-0.148,0.223-0.225,0.361c-0.302,0.527-0.595,1.242-0.948,1.867c-0.264,0.402-0.463,0.861-1.209,1.174v0.016   c-0.037,0.066-0.093,0.273-0.131,0.549c-0.132,0.547,0.017,1.375-0.816,2.275c-0.572,0.492-1.148,0.51-1.619,0.521   c-0.922-0.012-1.877-0.232-2.426-0.223c-0.089,0-0.161,0.008-0.209,0.014c-0.75,0.971-1.575,1.424-2.275,2.16   c-0.032-0.01-0.219,0.426-0.402,1.055c-0.201,0.604-0.497,1.469-1.395,2.074c-0.373,0.236-0.773,0.299-1.101,0.299   c-0.539-0.025-1.026-0.147-1.447-0.264c0.076,0.645,0.105,1.133,0.313,1.35c0,0,0.03,0.047,0.204,0.127   c0.171,0.078,0.441,0.16,0.759,0.246c0.626,0.197,1.483,0.33,2.218,1.117c0.377,0.443,0.416,0.896,0.422,1.248   c-0.017,0.855-0.311,1.662-0.561,2.492c-0.213,0.648-0.396,1.309-0.447,1.666c0.123,0.018,0.292,0.025,0.486,0.025   c0.371,0,0.837-0.035,1.322-0.035c0.611,0.02,1.308,0.006,2.027,0.521c0.76,0.586,1.807,1.084,2.834,1.73   c0.615,0.426,1.816,0.545,3.074,1.145h0.002c0.103,0.018,0.582-0.133,1.109-0.363c0.547-0.213,1.137-0.512,1.941-0.529   c0.236-0.004,0.52,0.031,0.776,0.143c1.075,0.498,1.323,1.359,1.644,2.002c0.241,0.602,0.518,1.15,0.617,1.264   c1.398,0.438,2.416,1.238,3.002,1.248c0.356,0.044,0.669,0.076,0.965,0.123c-0.362,0.694-0.733,1.383-1.117,2.063   c-0.033-0.003-0.06-0.007-0.095-0.011c-1.561-0.232-2.593-1.166-3.389-1.328c-1.185-0.408-1.431-1.307-1.754-1.936   c-0.269-0.65-0.555-1.262-0.687-1.381c-0.145,0.012-0.586,0.152-1.063,0.365c-0.551,0.213-1.147,0.512-1.953,0.529   c-0.297,0.002-0.635-0.055-0.963-0.221c-0.703-0.4-1.998-0.492-3.281-1.262c-0.867-0.553-1.97-1.066-2.994-1.844   c-0.012,0.016-0.002-0.006-0.131-0.029c-0.127-0.025-0.329-0.039-0.566-0.039c-0.376,0-0.839,0.035-1.322,0.035   c-0.64-0.023-1.39,0.01-2.148-0.631c-0.474-0.455-0.541-1.004-0.541-1.395c0.015-0.865,0.311-1.686,0.56-2.516   c0.23-0.701,0.427-1.416,0.457-1.732c-0.188-0.1-0.563-0.24-1.031-0.355c-0.634-0.203-1.52-0.34-2.194-1.258   c-0.918-1.533-0.58-3.023-0.9-3.484c-0.13-0.283-0.19-0.594-0.188-0.875c0.023-0.887,0.418-1.447,0.668-1.92   c0.174-0.287,0.288-0.533,0.345-0.68c-0.014-0.01-0.028-0.016-0.044-0.025c-0.234-0.129-0.653-0.287-1.116-0.439   c-0.895-0.324-1.86-0.502-2.696-1.139c-0.355,0.047-1.404,0.555-2.558,0.605c-0.316,0-0.685-0.049-1.048-0.23   c-0.858-0.535-0.842-1.137-0.971-1.635c-0.084-0.523-0.108-1.094-0.13-1.67c-0.007-0.857-0.076-1.807-0.157-2.25   c-0.211,0.051-0.535,0.158-0.886,0.299c-0.542,0.195-1.153,0.457-1.935,0.469c-0.174,0-0.368-0.014-0.582-0.063   c-1.328-0.359-2.301-1.086-3.061-1.191c-1.125-0.207-2.196-0.545-3.163-0.682c-0.004,0-0.009,0.002-0.021,0.004   c-0.045,0.016-0.121,0.051-0.216,0.105c-0.192,0.111-0.448,0.297-0.731,0.51c-0.588,0.396-1.188,1-2.305,1.057   c-0.033,0-0.102,0.002-0.217-0.01c-0.746-0.105-1.121-0.545-1.409-0.893c-0.289-0.371-0.51-0.773-0.726-1.168   c-0.27-0.529-0.576-1.07-0.779-1.373c-0.104,0.115-0.227,0.268-0.354,0.439c-0.415,0.547-0.868,1.268-1.405,1.857   c-0.369,0.367-0.772,0.832-1.645,0.877c-0.01,0-0.019,0-0.027,0h-0.049h-0.02c-0.954-0.08-1.582-0.551-2.108-0.865   c-0.421-0.279-0.773-0.455-0.952-0.502l-0.017,0.012c-0.102,0.078-0.274,0.25-0.456,0.469c-0.379,0.445-0.794,1.053-1.32,1.564   c-0.353,0.322-0.79,0.721-1.565,0.742c0,0-0.015,0.004-0.045,0.004c-0.806-0.055-1.21-0.508-1.522-0.863   c-0.313-0.379-0.561-0.797-0.802-1.213c-0.385-0.713-0.839-1.461-1.023-1.666c-0.934-0.1-1.537-0.59-2.057-0.918   c-0.309-0.225-0.582-0.381-0.764-0.467c-0.129,0.201-0.297,0.533-0.463,0.912c-0.383,0.869-0.773,1.965-1.223,2.818   c-0.352,0.51-0.498,1.223-1.771,1.402c-0.061-0.002-0.082-0.002-0.082-0.002c-1.205-0.008-2.199-0.223-2.946-0.217   c-0.024,0-0.062,0.002-0.112,0.004l-0.078,0.004l-0.051-0.006c-1.396-0.045-2.236-0.869-2.654-1.027   c-0.054-0.027-0.085-0.043-0.105-0.051c-0.354,0.141-0.317,0.156-0.463,0.357c-0.137,0.209-0.313,0.73-0.792,1.313   c-0.555,0.572-1.058,0.596-1.544,0.686c-0.493,0.061-1.016,0.064-1.544,0.064c-0.265,0-0.535,0-0.804,0.004   c-0.488-0.016-0.975,0.016-1.318,0.053c0.166,0.244,0.402,0.545,0.656,0.861c0.54,0.76,1.273,1.422,1.359,2.68   c0,0.133-0.012,0.277-0.056,0.455c0.006,0.119,0.188,0.637,0.454,1.182c0.268,0.615,0.632,1.283,0.652,2.182   c0,0.244-0.037,0.514-0.137,0.783c-0.559,1.131-1.416,1.164-2.102,1.371c-0.724,0.154-1.495,0.25-2.033,0.389   c-0.286,0.066-0.471,0.148-0.532,0.186c-0.767,1.18-1.698,1.645-2.347,2.381c-0.07,0.033-0.249,0.504-0.406,1.158   c-0.184,0.631-0.404,1.514-1.269,2.184c-0.446,0.324-0.93,0.391-1.319,0.391c-1.045-0.031-1.975-0.395-2.465-0.367   c-0.154,0-0.211,0.025-0.213,0.029c-0.174,0.082-0.461,0.408-0.834,0.891c-0.357,0.439-0.818,1.021-1.589,1.398   c-0.042,0.109-0.092,0.352-0.122,0.646c-0.068,0.623-0.059,1.434-0.167,2.18c-0.106,0.481-0.134,1.068-0.864,1.606   c-0.693,0.441-1.395,0.51-1.866,0.553c-0.437,0.023-0.672,0.07-0.715,0.092c-0.706,0.74-1.477,0.838-2.191,1.025   c-0.241,0.049-0.481,0.098-0.704,0.145c0.686,0.303,1.528,0.621,2.236,1.008c0.485,0.316,1.055,0.545,1.348,1.504   c0.017,0.09,0.026,0.18,0.026,0.289c-0.045,0.785-0.391,1.129-0.691,1.541c-0.322,0.389-0.703,0.767-1.079,1.141   c-0.57,0.527-1.125,1.152-1.341,1.443c0.454,0.756,1.141,1.686,1.728,2.436c0.713,0.918,1.354,2.006,1.969,2.633   c0.007-0.004,0.059,0.055,0.264,0.107c0.2,0.059,0.496,0.107,0.832,0.152c0.667,0.119,1.504,0.107,2.342,0.793   c0.895,0.816,1.533,1.697,2.111,2.188c0.227-0.019,0.874-0.234,1.496-0.504c0.729-0.283,1.383-0.641,2.264-0.672   c0.276,0,0.632,0.053,0.963,0.291c0.75,0.514,1.018,1.406,0.996,2.063c-0.039,1.307-0.59,2.518-0.545,2.957v0.018   c0.727,0.545,0.975,1.221,1.286,1.807c0.238,0.52,0.489,0.992,0.651,1.197c0.061-0.029,0.132-0.07,0.211-0.121   c0.271-0.17,0.625-0.434,0.993-0.715c0.792-0.539,1.427-1.254,2.669-1.348c0.153-0.002,0.31,0.02,0.469,0.063   c1.155,0.428,1.41,1.26,1.814,1.904c0.208,0.406,0.435,0.799,0.602,1.051c0.131-0.164,0.284-0.381,0.442-0.623   c0.472-0.715,0.986-1.625,1.551-2.336c0.406-0.438,0.734-0.992,1.752-1.078c0.125,0,0.2,0.016,0.153,0.008   c1.073,0.229,1.238,0.875,1.525,1.346c0.25,0.518,0.448,1.115,0.645,1.727c0.248,0.816,0.555,1.713,0.775,2.23   c0.064-0.068,0.133-0.146,0.205-0.23c0.385-0.447,0.813-1.063,1.354-1.576c0.364-0.324,0.814-0.715,1.581-0.738   c0.159,0.016,0.566-0.137,1.088-0.42c0.526-0.264,1.173-0.648,2.073-0.695c0.529,0.061,1.497-0.74,3.033-0.945v-0.004   c0.103-0.016,0.193-0.018,0.272-0.018c1.557,0.094,2.585,0.916,3.028,0.824c0.036,0,0.059-0.002,0.057-0.002   c1.049-0.088,2.104-0.221,3.201-0.332c1.073-0.107,2.136-0.223,3.21-0.342c0.937-0.1,1.969-0.408,3.149-0.557   c0.117-0.021,0.191-0.018,0.234-0.02c0.714,0.024,1.12,0.365,1.463,0.654c0.344,0.307,0.635,0.654,0.917,1   c0.461,0.586,0.964,1.186,1.198,1.379c0.17-0.086,0.48-0.297,0.828-0.605c0.502-0.398,1.07-0.994,2.098-1.145c0,0,0,0,0.031-0.018   c0.039-0.018,0.107-0.063,0.189-0.129c0.17-0.135,0.388-0.365,0.632-0.627c0.508-0.488,1.007-1.25,2.188-1.443   c0.924-0.09,1.98-0.434,3.182-0.559c0.098-0.016,0.166-0.016,0.213-0.016c0.785,0.033,1.195,0.441,1.533,0.77   c0.336,0.354,0.615,0.752,0.891,1.148c0.43,0.662,0.92,1.355,1.148,1.592c0.201-0.068,0.518-0.24,0.891-0.494   c0.496-0.301,1.088-0.764,2.006-0.834c0.064-0.008,0.11-0.008,0.141-0.008l0.011,0.002c0.987,0.016,1.653,0.488,2.169,0.801   c0.515,0.344,0.91,0.521,0.951,0.5c0.066,0,0.117,0.002,0.148,0.002c0.787,0.014,2.067-0.373,3.245-0.51   c1.106-0.109,2.373-0.096,3.202-0.27c0.068-0.102,0.178-0.33,0.283-0.613c0.219-0.576,0.422-1.336,0.752-2.029   c0.232-0.445,0.491-0.979,1.235-1.289c1.267-0.438,2.319-0.449,2.966-0.797c0.31-0.143,0.612-0.256,0.901-0.352   c-3.93,4.09-8.351,7.698-13.175,10.731c-0.774-0.719-1.649-0.558-2.006,1.213c-5.477,3.191-11.423,5.668-17.72,7.271   c-0.148-4.044-0.218-7.665-0.167-10.485c-0.105-0.078-0.203-0.16-0.294-0.236c-0.341-0.307-0.631-0.652-0.91-0.998   c-0.476-0.609-1.003-1.232-1.226-1.4c-0.725,0.098-1.516,0.299-2.389,0.447c-0.095,4.022-0.257,8.776-0.454,13.813   c-3.828,0.652-7.755,1.012-11.769,1.012c-0.005,0-0.009,0-0.013,0c-0.162-0.443-0.318-0.908-0.417-1.414   c-0.023-0.123-0.037-0.266-0.037-0.402c0.025-0.961,0.488-1.594,0.849-2.154c0.257-0.365,0.502-0.713,0.646-0.945   c-0.157-0.072-0.38-0.156-0.631-0.236c-0.738-0.234-1.711-0.447-2.574-0.76c-0.033-0.012-0.099-0.027-0.23-0.027   c-0.424-0.021-1.282,0.25-2.336,0.264c-0.25,0-0.514-0.016-0.789-0.066c-1.039-0.234-1.569-0.881-2.083-1.32   c-0.495-0.48-0.919-0.74-1.037-0.726c-1.23-0.145-2.386-0.447-3.467-0.524c-0.045-0.006-0.085-0.006-0.124-0.006   c-0.729-0.029-1.806,0.428-3.146,0.453c-0.051,0-0.106,0.002-0.193,0c-1.74-0.176-2.922-1.195-3.441-1.102l-0.045-0.002   l-0.025-0.002v0.002c-0.954-0.02-2.078,0.412-3.412,0.439c-0.242-0.02-0.724,0.211-1.27,0.613   c-0.574,0.357-1.065,0.932-2.194,1.035c-0.071,0-0.15,0-0.239,0c-0.661-0.002-1.13-0.059-1.325-0.057c-0.013,0-0.023,0-0.033,0   c-0.326,0.324-0.65,0.587-0.946,0.815c-8.787-3.961-16.611-9.678-23-16.729c-1.728,4.213-5.434,7.38-9.938,8.371   c15.104,16.859,37.036,27.477,61.455,27.477c45.561,0,82.496-36.934,82.496-82.496C248.387,51.512,211.451,14.574,165.89,14.574z"></path><path d="M57.683,134.549h4.635v90.27c0,6.832,5.537,12.365,12.365,12.365c6.827,0,12.363-5.533,12.363-12.365V74.814   c3.467,7.102,6.999,20.705,6.966,44.922c0,5.514-0.179,11.57-0.569,18.223c-0.26,4.406,3.105,8.195,7.521,8.453   c0.157,0.01,0.315,0.016,0.472,0.016c4.205-0.002,7.73-3.281,7.98-7.533c0.406-6.934,0.595-13.301,0.595-19.158   c-0.013-22.658-2.771-37.666-6.878-48.047c-4.057-10.338-9.855-16.172-15.234-18.84c-3.416-1.721-6.414-2.111-8.22-2.133   c-0.12-0.006-0.239-0.018-0.36-0.018H52.761c0.004,0.219,0.008,0.477,0.008,0.807c-0.016,3.916-0.447,15.504-5.407,28.772   l-5.539-2.332c4.511-12.226,4.959-22.987,4.946-26.44c0-0.36-0.004-0.62-0.009-0.807h-6.077c-0.479,0-0.945,0.05-1.398,0.133v0.008   c-3.088,0.349-5.766,1.558-8.109,3.105c-2.766,1.85-5.152,4.262-7.215,7.111c-4.088,5.686-6.924,13.246-6.939,21.842   c-0.009,6.436,1.672,13.408,5.573,20.1c3.89,6.699,9.925,13.072,18.375,18.721c1.364,0.914,2.911,1.352,4.44,1.352   c2.58,0,5.113-1.246,6.656-3.551c2.457-3.674,1.473-8.641-2.201-11.1c-6.775-4.539-10.939-9.168-13.439-13.465   c-2.49-4.307-3.395-8.324-3.404-12.057c-0.003-3.486,0.836-6.738,2.119-9.43c1.264-2.686,3.018-4.779,4.393-5.836   c0.426-0.342,0.79-0.558,1.067-0.699l0.185,2.26c-1.045,0.805-2.647,2.607-3.834,5.127c-1.268,2.658-1.933,5.619-1.931,8.576   c0.007,1.967,0.288,3.881,0.844,5.774l3.569-8.476l30.989,13.049L53.77,132.779l-30.986-13.048l3.459-8.217   c-2.064-2.406-3.869-4.911-5.382-7.513c-3.832-6.578-5.851-13.877-5.839-21.107c0.012-8.291,2.611-16.461,7.313-23.006   c2.271-3.139,4.871-5.695,7.729-7.605c2.847-1.881,6.135-3.07,9.056-3.463l0.001,0.017c0.51-0.083,1.029-0.138,1.563-0.138h14.626   c-5.287-1.129-14.396-2.854-20.274-2.771c-1.517,0.021-2.823,0.16-3.787,0.465c-6.332,2-24,14-30.5,49.5   c-4.887,26.692,15.242,47.588,30.207,51.213v-20.679l2,0.842v97.55c0,6.832,5.537,12.365,12.365,12.365   c5.281,0,9.778-3.317,11.549-7.98c0.52-1.364,0.816-2.838,0.816-4.385V134.549z"></path><circle cx="60.001" cy="22.5" r="22.5"></circle><rect x="50.688" y="82.661" transform="matrix(0.3874 -0.9219 0.9219 0.3874 -54.9273 105.4011)" width="2.324" height="22.744"></rect><rect x="48.881" y="86.947" transform="matrix(0.3874 -0.9219 0.9219 0.3874 -59.9857 106.3616)" width="2.325" height="22.745"></rect><path d="M133.659,73.234c1.673-2.855,6.905-9.814,13.286-8.43c-6.791-7.645-14.422,4.025-14.422,4.025s-12.324-6.521-14.569,3.455   C122.869,67.986,130.813,71.545,133.659,73.234z"></path><path d="M163.014,85.857c1.674-2.857,6.905-9.814,13.285-8.43c-6.791-7.646-14.422,4.023-14.422,4.023s-12.323-6.52-14.568,3.457   C152.222,80.605,160.167,84.168,163.014,85.857z"></path><path d="M167.711,52.1c1.672-2.855,6.904-9.814,13.285-8.43c-6.791-7.647-14.422,4.025-14.422,4.025s-12.324-6.521-14.568,3.455   C156.92,46.851,164.864,50.41,167.711,52.1z"></path><polygon points="142.336,149.18 141.885,149.896 142.345,149.178  "></polygon></g></svg></g></svg>